<svg id="Layer_1" data-name="Layer 1" xmlns="http://www.w3.org/2000/svg" viewBox="0 0 100 100"><defs><style>.cls-1{fill:#470637;}.cls-2{fill:#ca73ae;}</style></defs><path class="cls-1" d="M.05,50c0-9.19-.14-18.37.05-27.55C.25,14.89,3.05,8.51,9.41,4.06a22.81,22.81,0,0,1,11-3.82A64.36,64.36,0,0,1,26.9,0c16.35,0,32.7,0,49,0,4.79,0,9.44.77,13.61,3.36a21,21,0,0,1,10,15.14,45.81,45.81,0,0,1,.48,7.31c0,16.7,0,33.4,0,50.1,0,5.32-1,10.43-4.19,14.86A21.13,21.13,0,0,1,81,99.57a52.68,52.68,0,0,1-7.32.42c-16.5,0-33,0-49.51,0-4.94,0-9.75-.79-14-3.56a21,21,0,0,1-9.67-15A44.67,44.67,0,0,1,0,74.14Q0,62.05,0,50Zm84-3.6c0-6.66,0-13.32,0-20,0-1-.21-1.46-1.34-1.41-2,.1-4,0-6.07,0-1.84,0-1.76-.33-1.76,1.74q0,5.37,0,10.74c0,.4.23,1-.61.92a18.13,18.13,0,0,0-4.77.14A17.62,17.62,0,0,0,57,45.4a17.37,17.37,0,0,0-3.26,12.78c.65,6.35,3.77,11,9.93,13.12,6.76,2.32,13.4,1.21,19.91-1.22a1.12,1.12,0,0,0,.71-1.31c-.1-1.55-.26-3.09-.25-4.65C84.11,58.2,84.09,52.28,84.09,46.37ZM33.31,55.65c2.76,4.9,5.47,9.78,7.95,14.78a2.39,2.39,0,0,0,2.47,1.5c2.57,0,5.14,0,7.71,0,.49,0,1.08.18,1.41-.32s-.22-.93-.46-1.32q-5.91-9.76-11.9-19.48a2,2,0,0,1,0-2.55C44.31,42.09,48,35.9,51.76,29.72c.56-.93.45-1.16-.61-1.17-2.61,0-5.22,0-7.82,0a1.26,1.26,0,0,0-1.26.82c-2.16,4.12-4.35,8.23-6.52,12.35-.5,1-1,1.93-1.53,3-2.54-5.18-5.68-9.87-8-15a1.79,1.79,0,0,0-1.87-1.22c-2.61,0-5.22,0-7.83,0-1.61,0-1.66.08-.87,1.42q5.68,9.63,11.4,19.24a1.61,1.61,0,0,1,0,2c-4,6.48-7.93,13-11.88,19.49-.65,1.08-.56,1.25.69,1.25,2,0,3.89,0,5.84,0,3.54,0,2.77.53,4.52-2.67C28.46,64.75,30.86,60.22,33.31,55.65Z"/><path class="cls-2" d="M84.09,46.37c0,5.91,0,11.83,0,17.75,0,1.56.15,3.1.25,4.65a1.12,1.12,0,0,1-.71,1.31c-6.51,2.43-13.15,3.54-19.91,1.22-6.16-2.12-9.28-6.77-9.93-13.12A17.37,17.37,0,0,1,57,45.4a17.62,17.62,0,0,1,12.51-6.83,18.13,18.13,0,0,1,4.77-.14c.84.12.61-.52.61-.92q0-5.37,0-10.74c0-2.07-.08-1.73,1.76-1.74,2,0,4,.06,6.07,0,1.13,0,1.35.37,1.34,1.41C84.07,33.05,84.09,39.71,84.09,46.37Zm-9.15,8.88c0-2.68,0-5.36,0-8,0-.67-.17-.94-.87-1-5.49-.75-12,2.59-10.9,10.76.34,2.6,1.25,4.92,3.56,6.37s4.94,1.41,7.56,1.14c.63-.07.65-.53.64-1C74.93,60.69,74.94,58,74.94,55.25Z"/><path class="cls-2" d="M33.31,55.65c-2.45,4.57-4.85,9.1-7.3,13.59-1.75,3.2-1,2.63-4.52,2.67-1.95,0-3.89,0-5.84,0-1.25,0-1.34-.17-.69-1.25,3.95-6.5,7.89-13,11.88-19.49a1.61,1.61,0,0,0,0-2Q21.12,39.61,15.45,30c-.79-1.34-.74-1.42.87-1.42,2.61,0,5.22,0,7.83,0A1.79,1.79,0,0,1,26,29.75c2.32,5.12,5.46,9.81,8,15,.55-1.1,1-2.07,1.53-3,2.17-4.12,4.36-8.23,6.52-12.35a1.26,1.26,0,0,1,1.26-.82c2.6,0,5.21,0,7.82,0,1.06,0,1.17.24.61,1.17C48,35.9,44.31,42.09,40.52,48.24a2,2,0,0,0,0,2.55q6,9.7,11.9,19.48c.24.39.81.77.46,1.32s-.92.32-1.41.32c-2.57,0-5.14,0-7.71,0a2.39,2.39,0,0,1-2.47-1.5C38.78,65.43,36.07,60.55,33.31,55.65Z"/><path class="cls-1" d="M74.94,55.25c0,2.72,0,5.44,0,8.16,0,.51,0,1-.64,1-2.62.27-5.23.33-7.56-1.14s-3.22-3.77-3.56-6.37c-1.06-8.17,5.41-11.51,10.9-10.76.7.09.88.36.87,1C74.92,49.89,74.94,52.57,74.94,55.25Z"/></svg>