<svg id="Layer_1" data-name="Layer 1" xmlns="http://www.w3.org/2000/svg" viewBox="0 0 2 2"><defs><style>.cls-1{fill:#6951a2;}.cls-2{fill:#f7f1f8;}</style></defs><path class="cls-1" d="M0,1.05V1H0a.2.2,0,0,0,.08,0l0,0a.08.08,0,0,0,0,0l0-.06a1.55,1.55,0,0,0,0-.21V.37A.19.19,0,0,1,.38.21H1.62a.16.16,0,0,1,.11.07.19.19,0,0,1,.05.14,1.93,1.93,0,0,0,0,.24.65.65,0,0,0,0,.13.2.2,0,0,0,.08.12A.15.15,0,0,0,2,1v.1H2a.19.19,0,0,0-.12.07.21.21,0,0,0-.06.1,1.55,1.55,0,0,0,0,.21v.2a.2.2,0,0,1-.16.16H.38a.2.2,0,0,1-.16-.2V1.42a.22.22,0,0,1,0-.08,1,1,0,0,0,0-.14.21.21,0,0,0-.08-.11A.15.15,0,0,0,0,1.05ZM1.14,1h0A.15.15,0,0,0,1.26.89a.16.16,0,0,0,0-.12s0,0,0-.06A.18.18,0,0,0,1.18.6.35.35,0,0,0,1,.57H.69v.84H1a.32.32,0,0,0,.14,0,.2.2,0,0,0,.12-.08.22.22,0,0,0,0-.16A.2.2,0,0,0,1.22,1,.11.11,0,0,0,1.14,1Z"/><path class="cls-2" d="M1.14,1a.11.11,0,0,1,.08,0,.2.2,0,0,1,.12.16.22.22,0,0,1,0,.16.2.2,0,0,1-.12.08.32.32,0,0,1-.14,0H.69V.58H1a.35.35,0,0,1,.14,0,.18.18,0,0,1,.1.11s0,0,0,.06a.16.16,0,0,1,0,.12A.15.15,0,0,1,1.15,1Zm-.31.2V1.3s0,0,0,0h.24l.08,0a.16.16,0,0,0,0-.13.14.14,0,0,0-.08-.1H.84s0,0,0,0Zm0-.37V.93H1l.09,0a.14.14,0,0,0,0-.09A.1.1,0,0,0,1.1.7H.83Z"/><path class="cls-1" d="M.83,1.18V1.05s0,0,0,0h.28a.14.14,0,0,1,.08.1.16.16,0,0,1,0,.13l-.08,0H.84s0,0,0,0Z"/><path class="cls-1" d="M.83.81V.69H1.1a.1.1,0,0,1,.06.1.14.14,0,0,1,0,.09L1,.93H.83Z"/></svg>