<svg id="Layer_1" data-name="Layer 1" xmlns="http://www.w3.org/2000/svg" viewBox="0 0 2 2"><defs><style>.cls-1{fill:#8bb940;}</style></defs><path class="cls-1" d="M2,1v.92C2,2,2,2,1.94,2H.06S0,2,0,1.94V.06S0,0,.06,0H1.94C2,0,2,0,2,.05ZM.65,1.66c.06,0,.09,0,.1-.08l0-.09L1,1S1,1,1,1,1,1,1,1a0,0,0,0,0,0,0c.06.17.11.34.18.51a.17.17,0,0,0,.17.13c.1,0,.12,0,.1-.11s0,0,0,0-.09-.05-.11-.1L1,.52A.27.27,0,0,0,.71.33C.63.35.64.35.64.43s0,0,0,0,.15,0,.2.08a.5.5,0,0,1,0,.13s0,0,0,.07l-.34.82C.54,1.66.54,1.66.65,1.66Z"/></svg>