<svg id="Layer_1" data-name="Layer 1" xmlns="http://www.w3.org/2000/svg" viewBox="0 0 2 2"><defs><style>.cls-1{fill:#71c1ec;}.cls-2{fill:#235997;}.cls-3{fill:#245997;}.cls-4{fill:#61b5e5;}</style></defs><path class="cls-1" d="M1.06,0A.11.11,0,0,0,1,0H1L.38.38,1,1H1l.74.74.14-.26L1.36.26,1.13,0a.11.11,0,0,0-.07,0Z"/><path class="cls-2" d="M.38.38,0,1H0a.09.09,0,0,0,0,.07.07.07,0,0,0,0,.06l.29.3,1.15.45.26-.15h0L1,1H1L.38.38Z"/><path class="cls-3" d="M.38.38,1,1H1l.72.72L2,1.67V.86L1.71.58A.44.44,0,0,0,1.45.47h0L.38.38Z"/><path class="cls-4" d="M.38.38,1,1H1l.72.72L1.67,2H.86L.58,1.71a.44.44,0,0,1-.11-.26h0L.38.38Z"/></svg>