<svg id="Layer_1" data-name="Layer 1" xmlns="http://www.w3.org/2000/svg" viewBox="0 0 2 2"><defs><style>.cls-1{fill:#f04e23;}.cls-2{fill:#f37065;}.cls-3{fill:#8062aa;}.cls-4{fill:#43b8ea;}.cls-5{fill:#47ba80;}</style></defs><path class="cls-1" d="M.66,0H1A0,0,0,0,1,1,0V.67a0,0,0,0,1,0,0H.66A.33.33,0,0,1,.33.34v0A.33.33,0,0,1,.66,0Z"/><path class="cls-2" d="M1,0h.34a.33.33,0,0,1,.33.33v0a.33.33,0,0,1-.33.33H1a0,0,0,0,1,0,0V0A0,0,0,0,1,1,0Z"/><path class="cls-3" d="M.66.67H1a0,0,0,0,1,0,0v.67a0,0,0,0,1,0,0H.66A.33.33,0,0,1,.33,1V1A.33.33,0,0,1,.66.67Z"/><rect class="cls-4" x="1" y="0.67" width="0.67" height="0.67" rx="0.33"/><path class="cls-5" d="M.66,1.33H1a0,0,0,0,1,0,0v.34A.33.33,0,0,1,.67,2h0a.33.33,0,0,1-.33-.33v0A.33.33,0,0,1,.66,1.33Z"/></svg>