<svg xmlns="http://www.w3.org/2000/svg" viewBox="0 0 10 10">
    <path d="M8.93,0H1.07A1.07,1.07,0,0,0,0,1.07V8.93A1.07,1.07,0,0,0,1.07,10H8.93A1.07,1.07,0,0,0,10,8.93V1.07A1.07,1.07,0,0,0,8.93,0ZM6.19,8.56c-.19,0-.26-.08-.26-.17s0-.74,0-1.24a.87.87,0,0,0-.25-.68c.82-.09,1.69-.21,1.69-1.64A1.16,1.16,0,0,0,7,4,1.34,1.34,0,0,0,7,3c-.31-.1-1,.4-1,.4A3.54,3.54,0,0,0,5,3.23a3.66,3.66,0,0,0-.93.13s-.71-.5-1-.4A1.37,1.37,0,0,0,3,4a1.13,1.13,0,0,0-.35.87c0,1.42.83,1.55,1.66,1.64A.76.76,0,0,0,4.1,7,.78.78,0,0,1,3,6.65a.78.78,0,0,0-.57-.38c-.36,0,0,.23,0,.23.24.11.41.54.41.54.22.66,1.25.44,1.25.44,0,.31,0,.81,0,.91s-.07.21-.26.17A3.7,3.7,0,0,1,1.33,5,3.54,3.54,0,0,1,5,1.43,3.62,3.62,0,0,1,8.66,5,3.67,3.67,0,0,1,6.19,8.56ZM4,7.2a.08.08,0,0,1-.09,0A.08.08,0,0,1,4,7.09s.08,0,.09,0A.08.08,0,0,1,4,7.2Zm-.21,0s0,.05-.08.05-.08,0-.08-.05,0,0,.08,0A.06.06,0,0,1,3.79,7.18Zm-.31,0s0,0-.09,0-.07-.05-.06-.08,0,0,.09,0,.07,0,.06.08ZM3.21,7s-.06,0-.1,0,0-.07,0-.09.06,0,.1,0S3.23,7,3.21,7ZM3,6.83s0,0-.08,0a.07.07,0,0,1,0-.09s.06,0,.08,0A.06.06,0,0,1,3,6.83Zm-.14-.21s0,0-.08,0,0-.06,0-.08.06,0,.08,0S2.88,6.6,2.86,6.62Zm-.15-.17a0,0,0,0,1-.06,0s0,0,0-.06a.08.08,0,0,1,.07,0S2.72,6.43,2.71,6.45Z"/>
</svg>