<svg id="Layer_1" data-name="Layer 1" xmlns="http://www.w3.org/2000/svg" viewBox="0 0 2 2"><defs><style>.cls-1{fill:#ffcb2a;}</style></defs><path class="cls-1" d="M0,0H2V2H0V0M.53,1.67a.28.28,0,0,0,.28.17.26.26,0,0,0,.28-.28V.92H.9v.64c0,.09,0,.12-.1.12s-.09-.05-.12-.1l-.15.09m.66,0a.36.36,0,0,0,.34.19c.18,0,.31-.09.31-.26s-.09-.23-.25-.29l0,0c-.08,0-.12-.06-.12-.12a.09.09,0,0,1,.09-.08.12.12,0,0,1,.12.08l.15-.09A.28.28,0,0,0,1.52.91a.24.24,0,0,0-.27.25c0,.15.09.22.22.28l.05,0c.09,0,.14.06.14.12s0,.1-.13.1a.21.21,0,0,1-.19-.12Z"/></svg>