<svg xmlns="http://www.w3.org/2000/svg" viewBox="0 0 100 100"><defs><style>.cls-1{fill:gray;}</style></defs><path class="cls-1" d="M0,21c0-1.11,0-2.22.12-3.32A7.57,7.57,0,0,1,8,10.34q18.2-.09,36.37,0a7.67,7.67,0,1,1,0,15.34q-13.3.09-26.62,0c-1.64,0-2.32.2-2.31,2.14q.15,27,0,54c0,1.84.43,2.38,2.33,2.38q26.87-.12,53.73,0c1.69,0,2.13-.49,2.12-2.12q-.1-13.32,0-26.63c0-4.36,1.6-6.8,5-8.06a7.53,7.53,0,0,1,10.43,6.88q.16,18.9,0,37.8c0,4.47-3.62,7.66-8.29,7.66q-35.89,0-71.8,0a13.33,13.33,0,0,1-2.8-.35A7.15,7.15,0,0,1,.19,92.51C0,86.73,0,32.21,0,21Z"/><path class="cls-1" d="M83.12,26.44c-7.58,7.94-27.84,28.82-30.44,31.24a7.63,7.63,0,0,1-10.61-11c9.64-9.59,30.46-29.62,31.19-30.08l-.57-.93c-3,0-5.92,0-8.88,0-4.64,0-7.94-2.92-8.13-7.12A7.61,7.61,0,0,1,63.39.43Q77.74.18,92.12.45c4.67.09,7.67,3.18,7.74,7.87.15,9.18.22,18.37,0,27.55-.2,7.81-7.07,9.43-11.6,7.12a7.19,7.19,0,0,1-3.9-6.58c-.11-3,0-6.11,0-9.17Z"/></svg>