<svg id="Layer_1" data-name="Layer 1" xmlns="http://www.w3.org/2000/svg" viewBox="0 0 2 2"><defs><style>.cls-1{fill:#3e83c4;}</style></defs><path class="cls-1" d="M1,1.51c-.55,0-1-.23-1-.51S.45.49,1,.49,2,.72,2,1s-.45.51-1,.51M.57.84a.12.12,0,0,1,.09,0A.13.13,0,0,1,.67,1a.19.19,0,0,1-.05.09l-.11,0H.44l0-.23H.57m-.29.47H.4l0-.15H.64l.08,0L.77,1A.19.19,0,0,0,.79,1a.16.16,0,0,0,0-.15A.21.21,0,0,0,.61.76H.38l-.1.55m.6-.7-.11.55H.89L1,.85h.16s0,0,0,.06l0,.24h.12L1.24.9a.11.11,0,0,0,0-.11.21.21,0,0,0-.13,0H1L1,.61H.88M1.5.84q.08,0,.09,0s0,.05,0,.09a.13.13,0,0,1-.05.09l-.1,0H1.38l0-.23H1.5m-.29.47h.12l0-.15h.21l.08,0L1.7,1l0-.08a.19.19,0,0,0,0-.15A.23.23,0,0,0,1.55.76H1.32Z"/></svg>