<svg id="Layer_1" data-name="Layer 1" xmlns="http://www.w3.org/2000/svg" viewBox="0 0 3 2"><defs><style>.cls-1{fill:#1f658d;}.cls-2{fill:#e3912a;}</style></defs><path class="cls-1" d="M.58,1.29a2.55,2.55,0,0,0-.13.29.11.11,0,0,1-.11.07.09.09,0,0,1-.09-.07c0-.1-.09-.2-.15-.3v.3s0,.07,0,.07,0,0,0-.07v-.3c0-.05,0-.09.07-.1a.1.1,0,0,1,.13.06l.12.28a.13.13,0,0,0,0,.05l.14-.33c0-.06.07-.07.14-.06a.07.07,0,0,1,.06.08V1.6s0,0,0,0-.06,0-.06,0V1.29Z"/><path class="cls-2" d="M2.38,1.71c-.08,0-.13,0-.17,0s0,0-.06,0H2a.13.13,0,0,1-.14-.15V1.32c0-.08,0-.13.12-.13a1.13,1.13,0,0,1,.26,0c.09,0,.12,0,.12.13v.2s0,0,0,.05S2.32,1.67,2.38,1.71ZM2,1.51c.08,0,.13,0,.17,0s0,0,0,0,0-.19,0-.27-.14,0-.21,0H2A.07.07,0,0,0,2,1.32v.19A.06.06,0,0,0,2,1.58H2.1v0Z"/><path class="cls-1" d="M3,1.08c-.05,0-.11,0-.16,0s.06.05.09.07A.24.24,0,0,1,3,1.29a.83.83,0,0,1-.22-.14s0,0,0-.06l.14,0A.67.67,0,0,0,2.75,1,.13.13,0,0,1,2.64.86c0-.07-.05-.13-.08-.19A.57.57,0,0,0,2.12.33S2.05.28,2,.27s0,0-.07,0,0,0,0,.06.09.22.17.31a.09.09,0,0,1,0,.07.26.26,0,0,0,0,.21.06.06,0,0,0,0,.06A.25.25,0,0,1,2.21.81,1.55,1.55,0,0,0,2.33,1C2.27,1,2.25,1,2.22.91a.06.06,0,0,0,0,0s0,.06,0,.07S2.11,1,2.09,1a.36.36,0,0,1,0-.25.14.14,0,0,0,0-.11C2,.51,2,.4,1.91.31s0,0,0-.07A.09.09,0,0,1,2,.21H2c.27.09.54.19.64.5,0,0,0,.05,0,.08a.27.27,0,0,0,.13.13A.48.48,0,0,1,3,1.08Z"/><path class="cls-1" d="M1.26,1.52v.12c0,.09,0,.13-.12.14H.81s0,0,0,0,0,0,0,0h.3a0,0,0,0,0,0-.05s0,0,0,0a1.08,1.08,0,0,1-.18,0c-.12,0-.15,0-.15-.16v-.1s0-.06,0-.06.05,0,.05.07v.09c0,.1,0,.1.09.1s.14,0,.18,0,0-.11,0-.17,0-.08.05-.08.05,0,.05.05A.75.75,0,0,0,1.26,1.52Z"/><path class="cls-2" d="M1.6,1.19h.15s0,0,0,0,0,0,0,0H1.51s-.08,0-.08.06,0,.07.08.07a.61.61,0,0,1,.19,0,.11.11,0,0,1,.08.1c0,.06,0,.12-.07.14a1.09,1.09,0,0,1-.36,0s0,0,0,0,0,0,0,0h.22s.09,0,.09-.07-.05-.06-.09-.07H1.44c-.08,0-.11-.05-.1-.14s0-.11.12-.11a.66.66,0,0,1,.14,0Z"/><path class="cls-2" d="M2.41,1.38V1.24s0-.06,0-.06,0,0,0,.06v.27c0,.05,0,.07.07.07H2.8s.05,0,.05,0,0,0,0,0H2.58c-.14,0-.17,0-.17-.18Z"/><path class="cls-1" d="M2.16.47l0-.06C2.19.42,2.19.42,2.16.47Z"/></svg>