<svg id="Layer_1" data-name="Layer 1" xmlns="http://www.w3.org/2000/svg" viewBox="0 0 2 2"><defs><style>.cls-1{fill:#f15a2c;}</style></defs><path id="back" class="cls-1" d="M1.21,0a.53.53,0,0,0-.3.09L.44.39A.58.58,0,0,0,.2.74a.56.56,0,0,0,.06.36.56.56,0,0,0-.08.2.57.57,0,0,0,.09.44.62.62,0,0,0,.82.17l.47-.29a.57.57,0,0,0,.24-.36A.56.56,0,0,0,1.74.9.5.5,0,0,0,1.82.7.54.54,0,0,0,1.73.27h0A.66.66,0,0,0,1.21,0Zm0,.23a.33.33,0,0,1,.28.16.3.3,0,0,1,.06.26.06.06,0,0,1,0,0v0l0,0L1.37.61h0v0a.07.07,0,0,0,0-.06A.11.11,0,0,0,1.21.47h0L.72.78a.18.18,0,0,0,0,.07.19.19,0,0,0,0,.07A.12.12,0,0,0,.81,1h0L1,.84l.09,0a.37.37,0,0,1,.4.15.39.39,0,0,1,.06.26.32.32,0,0,1-.15.21L1,1.72l-.1,0a.35.35,0,0,1-.39-.15.3.3,0,0,1-.06-.26.08.08,0,0,1,0,0v0l0,0a.76.76,0,0,0,.18.09h0v0a.07.07,0,0,0,0,.06.11.11,0,0,0,.12.05h0l.46-.3a.13.13,0,0,0,.05-.07.19.19,0,0,0,0-.07A.12.12,0,0,0,1.19,1h0L1,1.16l-.09,0a.37.37,0,0,1-.4-.15A.39.39,0,0,1,.43.79.32.32,0,0,1,.58.58L1,.28l.1,0Z"/></svg>