<svg id="Layer_1" data-name="Layer 1" xmlns="http://www.w3.org/2000/svg" viewBox="0 0 100 100"><defs><style>.cls-1{fill:#fbd31b;}</style></defs><path class="cls-1" d="M59,94.82,72.43,71,35.51,90.38l28-25.17L15.1,73.88,57,54.91l-57-7,56.89-7L15,21.83,63.62,30.6,35.89,5.75,70,23.17l2.19,1L70.8,22.4,61,5.09C71.2,14.83,86.15,25.77,96.64,40c10.11,13.71-5.08,21.84-13.12,30.45C75.66,78.86,67.21,86.72,59,94.83ZM81.73,41,66.45,38.82,79,44.94l-22.86,3L79,50.84,66.25,57.08l15.18-2.26-3,4.35,10.45-4c1.88-1.76,5.22-4.73,3.43-9.91-2.27-6.54-8.91-5.69-14.88-9.55Z"/><polygon class="cls-1" points="59.02 94.83 58.94 94.91 59 94.82 59.02 94.83"/></svg>