<svg id="Layer_1" data-name="Layer 1" xmlns="http://www.w3.org/2000/svg" viewBox="0 0 2 2"><defs><style>.cls-1{fill:#470637;}.cls-2{fill:#ca73ae;}</style></defs><path class="cls-1" d="M0,1V.45A.43.43,0,0,1,.19.08.53.53,0,0,1,.41,0H1.52a.52.52,0,0,1,.27.07.42.42,0,0,1,.2.3A.76.76,0,0,1,2,.52v1a.52.52,0,0,1-.08.3.46.46,0,0,1-.3.17H.48A.55.55,0,0,1,.2,1.93.41.41,0,0,1,0,1.63a.76.76,0,0,1,0-.15V1ZM1.68.93V.53s0,0,0,0H1.53s0,0,0,0V.75s0,0,0,0a.33.33,0,0,0-.1,0,.35.35,0,0,0-.25.14.32.32,0,0,0-.06.25.29.29,0,0,0,.19.27.61.61,0,0,0,.4,0s0,0,0,0a.38.38,0,0,1,0-.1Zm-1,.18.16.3s0,0,0,0h.19a0,0,0,0,0,0,0L.81,1A.06.06,0,0,1,.81,1L1,.59s0,0,0,0H.87s0,0,0,0L.71.83l0,.06C.63.79.57.7.52.59a.05.05,0,0,0,0,0H.33s0,0,0,0S.46.86.54,1s0,0,0,0L.3,1.41s0,0,0,0H.43c.07,0,.06,0,.09-.06Z"/><path class="cls-2" d="M1.68.93v.35a.38.38,0,0,0,0,.1s0,0,0,0a.61.61,0,0,1-.4,0,.29.29,0,0,1-.19-.27A.32.32,0,0,1,1.14.91.35.35,0,0,1,1.39.77a.33.33,0,0,1,.1,0s0,0,0,0V.54c0-.05,0,0,0,0h.13s0,0,0,0Zm-.18.18V.94l0,0a.19.19,0,0,0-.22.22.21.21,0,0,0,.07.13.29.29,0,0,0,.16,0s0,0,0,0Z"/><path class="cls-2" d="M.67,1.11l-.15.27c0,.07,0,.06-.09.06H.31s0,0,0,0L.54,1s0,0,0,0S.38.73.31.6s0,0,0,0H.48a.05.05,0,0,1,0,0c0,.11.11.2.16.3l0-.06L.84.59s0,0,0,0H1s0,0,0,0L.81,1A.06.06,0,0,0,.81,1l.24.39a0,0,0,0,1,0,0H.87s0,0,0,0Z"/><path class="cls-1" d="M1.5,1.11v.16s0,0,0,0a.29.29,0,0,1-.16,0,.21.21,0,0,1-.07-.13A.19.19,0,0,1,1.48.92l0,0Z"/></svg>