<svg id="Layer_1" data-name="Layer 1" xmlns="http://www.w3.org/2000/svg" viewBox="0 0 100 100"><defs><style>.cls-1{fill:#04263a;}.cls-2{fill:#914a9b;}</style></defs><path class="cls-1" d="M.05,84V10.05q44.46,0,88.9,0c3.06,0,3-.44,3,2.92q0,36.72,0,73.42c0,4.62.47,4-4,4-3.27,0-3.31-.07-3.31-3.38q0-29.22,0-58.44c0-1.41-.06-2.83,0-4.24s-.58-1.82-1.8-1.82H79.13c-2.52,0-2.61.11-2.61,2.7,0,20.07,0,40.13,0,60.19,0,5.88,1.21,4.9-5.48,5-1.19,0-1.65-.57-1.67-1.66,0-.58,0-1.16,0-1.75V40.81c0-5.4,0-5.4-5.43-5.36-2.84,0-2.85,0-2.85,2.95q0,24.35,0,48.7c0,.66,0,1.33,0,2,0,.93-.49,1.33-1.41,1.31-1.41,0-2.83,0-4.24,0a1.37,1.37,0,0,1-1.54-1.53q0-.87,0-1.74,0-18.24,0-36.46c0-.67,0-1.34,0-2a1.4,1.4,0,0,0-1.52-1.58c-1.66,0-3.33,0-5,0-1,0-1.56.46-1.54,1.53,0,.66,0,1.33,0,2q0,18.36,0,36.71c0,3.09-.05,3.09-3,3.1-4.38,0-4.39,0-4.39-4.48,0-7.74,0-15.48,0-23.23,0-3.32,0-3.32-3.26-3.32-.75,0-1.5,0-2.25,0-2.41,0-2.42,0-2.42,2.56V85.43c0,5,0,5-5,5-2.53,0-2.59-.08-2.59-2.73,0-4.49,0-9,0-13.48,0-2.53-.12-2.67-2.71-2.68-5.62,0-4.84-.34-4.9,4.75,0,4,0,8-.08,12,0,.94,0,2-1.26,2.08-1.81.08-3.64-.06-5.46-.1-.15-1.37-.3-2.74-.44-4.12a2,2,0,0,1,0-.49c.16-1.33-.5-1.78-1.74-1.75C4.21,83.94,2.13,83.94.05,84Z"/><path class="cls-2" d="M.05,84c2.08,0,4.16,0,6.24-.1,1.24,0,1.9.42,1.74,1.75a2,2,0,0,0,0,.49c.14,1.38.29,2.75.44,4.12,1.82,0,3.65.18,5.46.1,1.23,0,1.25-1.14,1.26-2.08,0-4,0-8,.08-12,.06-5.09-.72-4.77,4.9-4.75,2.59,0,2.7.15,2.71,2.68,0,4.49,0,9,0,13.48,0,2.65.06,2.7,2.59,2.73,5,.06,5,.06,5-5V62c0-2.52,0-2.52,2.42-2.56.75,0,1.5,0,2.25,0,3.23,0,3.26,0,3.26,3.32,0,7.75,0,15.49,0,23.23,0,4.49,0,4.49,4.39,4.48,2.92,0,3,0,3-3.1q0-18.34,0-36.71c0-.66,0-1.33,0-2,0-1.07.56-1.52,1.54-1.53,1.66,0,3.33,0,5,0a1.4,1.4,0,0,1,1.52,1.58c0,.66,0,1.33,0,2q0,18.23,0,36.46,0,.87,0,1.74a1.37,1.37,0,0,0,1.54,1.53c1.41,0,2.83,0,4.24,0,.92,0,1.4-.38,1.41-1.31,0-.67,0-1.34,0-2q0-24.34,0-48.7c0-2.93,0-2.93,2.85-2.95,5.43,0,5.43,0,5.43,5.36V87c0,.59,0,1.17,0,1.75,0,1.09.48,1.67,1.67,1.66,6.69-.1,5.46.88,5.48-5,.08-20.06,0-40.12,0-60.19,0-2.59.09-2.69,2.61-2.7h3.75c1.22,0,1.83.53,1.8,1.82s0,2.83,0,4.24q0,29.22,0,58.44c0,3.31,0,3.39,3.31,3.38,4.46,0,4,.63,4-4Q92,49.72,92,13c0-3.36,0-2.92-3-2.92q-44.45,0-88.9,0c0-3,.05-6,0-9,0-.87.16-1.19,1-1a3.75,3.75,0,0,0,.75,0Q50,.06,98.21,0C99.7,0,100,.31,100,1.8Q99.91,50,100,98.21c0,1.49-.3,1.79-1.79,1.79Q50,99.93,1.8,100C.31,100,0,99.71,0,98.21.13,93.47.05,88.72.05,84Z"/></svg>