<svg width="1059" height="108" viewBox="0 0 1059 108" fill="none" xmlns="http://www.w3.org/2000/svg">
<path d="M0.804418 105.432L93.2406 48.2794H141.192C142.67 48.2794 143.997 49.4495 143.997 51.0682C143.997 52.3878 143.409 52.9728 142.67 53.4149L97.2692 80.4636C94.3196 82.2253 93.2863 85.7421 93.2863 88.3813L93.2406 105.432H150.936V6.33796C150.936 4.4333 149.458 2.82117 147.248 2.82117H92.2138L0 59.7204V105.432H0.804418Z" fill="white"/>
<path d="M758.612 105.426H841.709V83.2394H784.935V64.6413H830.611V42.325H784.935V25.0075H841.709V2.82117H758.612V105.426Z" fill="white"/>
<path d="M236.283 2.82117L196.67 105.426H223.896L230.809 86.1906H275.026L281.828 105.426H309.956L269.833 2.82117H236.283ZM238.651 64.3813L253.104 24.1559L267.322 64.3813H238.651Z" fill="white"/>
<path d="M422.869 25.0075H456.157V105.426H482.481V25.0075H515.645V2.82117H422.869V25.0075Z" fill="white"/>
<path d="M384.545 65.922C384.545 79.2611 376.285 84.65 362.224 84.65C348.549 84.65 339.641 79.0076 339.641 65.922V2.43768H313.318V68.8732C313.318 98.5027 339.896 107.733 362.224 107.733C384.42 107.733 410.868 98.4962 410.868 68.8732V2.43768H384.545V65.922Z" fill="white"/>
<path d="M1059 2.82117H1027.65L990.095 44.5026V2.82117H963.778L963.902 105.426H990.095V66.4355L1025.71 105.426H1059L1011 54.767L1059 2.82117Z" fill="white"/>
<path d="M696.678 2.82117H648.42V105.426H696.678C733.708 105.426 743.904 91.7031 743.904 53.3564C743.904 17.3174 734.094 2.82117 696.678 2.82117ZM695.645 83.2394H674.743V25.0075H695.645C712.159 25.0075 717.064 29.4994 717.064 53.3499C717.064 75.1592 711.518 83.2394 695.645 83.2394Z" fill="white"/>
<path d="M921.32 45.0163L897.319 42.325C883.251 40.7844 879.772 37.3261 879.772 32.5807C879.772 27.3218 886.998 22.5764 901.059 22.5764C914.61 22.5764 921.706 27.5818 922.995 35.1484H948.801C947.52 13.4691 929.194 0 902.485 0C870.74 0 854.743 12.572 854.743 34.7584C854.743 52.8429 865.325 61.3066 887.26 63.6143L911.648 66.182C920.941 67.2091 925.199 70.7974 925.199 75.4193C925.199 80.6782 919.005 85.4236 904.035 85.4236C886.743 85.4236 879.778 81.0618 878.614 72.3445H853.324C854.488 95.9415 869.968 108 903.133 108C933.452 108 950.358 94.7909 950.358 74.9122C950.358 57.5883 940.293 47.2004 921.32 45.0163Z" fill="white"/>
<path d="M576.931 0C539.385 0 519.896 22.9599 519.896 53.87C519.896 84.9101 539.379 107.993 576.931 107.993C614.608 107.993 634.091 84.9101 634.091 53.87C634.097 22.9599 614.608 0 576.931 0ZM576.931 84.9036C557.449 84.9036 546.736 73.1051 546.736 53.8635C546.736 35.0119 557.449 23.0834 576.931 23.0834C596.545 23.0834 607.126 35.0119 607.126 53.8635C607.126 73.1051 596.545 84.9036 576.931 84.9036Z" fill="white"/>
</svg>
