<svg id="Layer_1" data-name="Layer 1" xmlns="http://www.w3.org/2000/svg" viewBox="0 0 100 100"><defs><style>.cls-1{fill:#ab1f23;}.cls-2{fill:#fff;}</style></defs><g id="Layer_2" data-name="Layer 2"><g id="DC_EC_Logo_Surface" data-name="DC EC Logo Surface"><g id="Outline_no_shadow" data-name="Outline no shadow"><path class="cls-1" d="M17.71,1.25H82.29A17.7,17.7,0,0,1,100,19V81A17.7,17.7,0,0,1,82.29,98.75H17.71A17.7,17.7,0,0,1,0,81V19A17.7,17.7,0,0,1,17.71,1.25Z"/></g></g></g><g id="Layer_3" data-name="Layer 3"><g id="Layer_86" data-name="Layer 86"><path id="_64" data-name=" 64" class="cls-2" d="M80.42,57.71C75.79,52.79,63,54.79,60,55.29A51.71,51.71,0,0,1,51.46,44a50.44,50.44,0,0,0,2.92-14.75c0-4.5-1.8-9.33-6.8-9.33a5.07,5.07,0,0,0-4.21,2.46c-2.12,3.66-1.29,11.25,2.13,18.91-2,5.63-4.88,13.75-8.67,20.34-5.12,2-16,7-17,12.58a4.7,4.7,0,0,0,1.5,4.42,6.36,6.36,0,0,0,4.42,1.58c6.54,0,13.08-9.08,17.5-16.87a110.74,110.74,0,0,1,15.58-4.09c6.92,6,13.08,7,16.21,7,4.25,0,5.83-1.83,6.42-3.38A5.2,5.2,0,0,0,80.42,57.71Zm-4.5,3.17c-.21,1.2-1.75,2.41-4.63,1.79a23.17,23.17,0,0,1-9.08-4.59,37.92,37.92,0,0,1,11.21-.16C74.75,58.17,76.29,58.92,75.92,60.88ZM46.08,24a1.69,1.69,0,0,1,1.46-.92c1.59,0,1.92,1.92,1.92,3.5a48.38,48.38,0,0,1-2.09,11.13C44.71,30.62,45.08,25.71,46.08,24Zm-.37,34.62a106.7,106.7,0,0,0,4.12-9.91,53,53,0,0,0,5.67,7.41A95.71,95.71,0,0,0,45.71,58.62ZM35.25,65.79c-4.21,6.75-8.33,11-10.75,11a1.69,1.69,0,0,1-1.08-.37,1.55,1.55,0,0,1-.54-1.55C23.33,72.46,28.12,69,35.25,65.79Z"/></g></g></svg>