<svg id="Layer_1" data-name="Layer 1" xmlns="http://www.w3.org/2000/svg" viewBox="0 0 100 100"><defs><style>.cls-1{fill:#1d1c57;}.cls-2{fill:#9696ca;}</style></defs><g id="Layer_2" data-name="Layer 2"><g id="Surfaces"><g id="Video_Audio_Surface" data-name="Video Audio Surface"><g id="Outline_no_shadow" data-name="Outline no shadow"><path class="cls-1" d="M17.71,1.25H82.29A17.7,17.7,0,0,1,100,19V81A17.7,17.7,0,0,1,82.29,98.75H17.71A17.7,17.7,0,0,1,0,81V19A17.7,17.7,0,0,1,17.71,1.25Z"/></g></g></g><g id="Outlined_Mnemonics_Logos" data-name="Outlined Mnemonics Logos"><g id="Ae"><path class="cls-2" d="M40.17,59.58H24.67L21.5,69.42a.73.73,0,0,1-.79.58H12.87c-.45,0-.58-.25-.45-.75L25.83,30.79c.13-.41.25-.79.42-1.29a14.23,14.23,0,0,0,.25-2.71.42.42,0,0,1,.33-.46h10.8a.5.5,0,0,1,.54.34L53.38,69.38c.12.45,0,.66-.42.66H44.25a.63.63,0,0,1-.67-.46ZM27.08,51.29H37.67c-.25-.87-.59-1.91-1-3S36,46,35.58,44.71s-.79-2.54-1.2-3.83-.8-2.5-1.13-3.71-.62-2.25-.92-3.25h-.08a48.39,48.39,0,0,1-1.42,5.37c-.62,2-1.25,4.09-1.91,6.17S27.71,49.54,27.08,51.29Z"/><path class="cls-2" d="M78.08,55.75H64.87a9.26,9.26,0,0,0,1.3,3.71,6.63,6.63,0,0,0,3,2.5,13,13,0,0,0,5.33,1,25.16,25.16,0,0,0,4.34-.46,15.6,15.6,0,0,0,3.7-1c.21-.16.34-.08.34.34v6.37a2.19,2.19,0,0,1-.09.5.81.81,0,0,1-.29.29,17.53,17.53,0,0,1-4.16,1.25,28,28,0,0,1-5.92.5,19.72,19.72,0,0,1-8-1.46,14.08,14.08,0,0,1-5.25-4A15.51,15.51,0,0,1,56.33,60a21.4,21.4,0,0,1-.87-6.09,21.1,21.1,0,0,1,1-6.62,17.07,17.07,0,0,1,3.13-5.71,15,15,0,0,1,5-4,15.72,15.72,0,0,1,7-1.29,15.16,15.16,0,0,1,6.45,1.29,11.5,11.5,0,0,1,4.38,3.34A15.21,15.21,0,0,1,85,45.67a16.38,16.38,0,0,1,.79,5.08c0,1,0,1.87-.08,2.67s-.13,1.37-.17,1.75a.62.62,0,0,1-.58.54c-.25,0-.71,0-1.38.08a20.19,20.19,0,0,1-2.41.13C80.17,55.92,79.17,55.75,78.08,55.75ZM64.87,49.67h8.8c1.08,0,1.87,0,2.37-.05a2,2,0,0,0,1-.33v-.42a4.69,4.69,0,0,0-.25-1.54,5.52,5.52,0,0,0-5.42-3.83,5.85,5.85,0,0,0-5.54,3.17A8.71,8.71,0,0,0,64.87,49.67Z"/></g></g></g></svg>