<svg xmlns="http://www.w3.org/2000/svg" viewBox="0 0 100 100"><defs><style>.cls-1{fill:#87CDB4;}</style></defs><circle cx="50" cy="50" r="49.5"/><path class="cls-1" d="M70.82,67v-.85c0-3.14,0-6.28,0-9.41a3.52,3.52,0,0,1,2.92-3.6,3.44,3.44,0,0,1,3.87,2.42,4,4,0,0,1,.14,1.14q0,6.84,0,13.67A3.45,3.45,0,0,1,74.27,74c-.34,0-.67,0-1,0H26.08a3.49,3.49,0,0,1-3.83-3.81c0-4.41,0-8.82,0-13.24a3.43,3.43,0,0,1,2.61-3.68,3.36,3.36,0,0,1,4.25,3c.11,3.18.05,6.36.08,9.55C29.2,67.24,29,67,30.45,67H70.82Z"/><path class="cls-1" d="M53.46,48.23l.9-.88c2.33-2.34,4.66-4.69,7-7a3.44,3.44,0,0,1,5.78,1.21,3.29,3.29,0,0,1-.79,3.61q-6.95,7-13.93,13.91a3.39,3.39,0,0,1-5-.12L36.86,48.37,33.79,45.3a3.5,3.5,0,0,1-.16-5,3.44,3.44,0,0,1,5,.06c2.42,2.38,4.82,4.8,7.22,7.2.16.16.34.31.64.58V22.33a3.51,3.51,0,0,1,2.81-3.83,3.39,3.39,0,0,1,4.1,3.11c.06,2.7,0,5.41,0,8.11V48.23Z"/></svg>