<svg id="Layer_1" data-name="Layer 1" xmlns="http://www.w3.org/2000/svg" viewBox="0 0 2 2"><defs><style>.cls-1{fill:#fdfdfa;}</style></defs><path class="cls-1" d="M.78,1.3c0,.09-.05.23-.16.23S.47,1.39.47,1.3s.05-.23.15-.23S.78,1.22.78,1.3ZM2,1.09a.89.89,0,0,1-.07.4c-.16.32-.6.31-.91.31s-.77,0-.94-.31A.9.9,0,0,1,0,1.09.73.73,0,0,1,.17.62a.75.75,0,0,1,0-.2A.43.43,0,0,1,.2.2.65.65,0,0,1,.65.35,1.61,1.61,0,0,1,1,.31a1.27,1.27,0,0,1,.34,0A.65.65,0,0,1,1.81.2a.43.43,0,0,1,.06.22.75.75,0,0,1,0,.2A.72.72,0,0,1,2,1.09Zm-.27.21A.31.31,0,0,0,1.43,1L1.19,1,1,1,.82,1,.58,1a.31.31,0,0,0-.3.34c0,.37.33.42.62.42h.2C1.4,1.72,1.73,1.67,1.73,1.3Zm-.34-.23c-.11,0-.16.15-.16.23s.05.23.16.23.15-.14.15-.23S1.5,1.07,1.39,1.07Z"/></svg>