<svg id="Layer_1" data-name="Layer 1" xmlns="http://www.w3.org/2000/svg" viewBox="0 0 2 2">
<defs><style>.cls-1{fill:#414042;}</style></defs>
<path class="cls-1" d="M.67,1.6h0s0,0,0,0,0,0,0,0A0,0,0,0,1,.67,1.6Zm-.13,0s0,0,0,0h0a0,0,0,0,0,0,0s0,0,0,0Zm.18,0a0,0,0,0,0,0,0s0,0,0,0a0,0,0,0,0,0,0ZM1,0A1,1,0,0,0,0,1,1,1,0,0,0,.68,2c.06,0,.07,0,.07-.05V1.68s-.28.06-.34-.12c0,0,0-.12-.11-.15s-.09-.06,0-.06a.22.22,0,0,1,.16.1.21.21,0,0,0,.29.09A.23.23,0,0,1,.82,1.4C.59,1.37.37,1.34.37,1A.3.3,0,0,1,.46.72a.44.44,0,0,1,0-.28C.56.42.75.55.75.55A1.07,1.07,0,0,1,1,.52a1.09,1.09,0,0,1,.26,0s.19-.13.27-.11a.4.4,0,0,1,0,.28.31.31,0,0,1,.1.23c0,.39-.24.42-.46.45a.26.26,0,0,1,.06.19v.33s0,.06.07.05A1,1,0,0,0,2,1,1,1,0,0,0,1,0Zm-.6,1.4v0s0,0,0,0a0,0,0,0,0,0,0S.4,1.41.39,1.42Zm0,0s0,0,0,0h0a0,0,0,0,0,0,0Zm.13.15s0,0,0,0h0s0,0,0,0S.48,1.52.48,1.53Zm0-.06v0h0v0s0,0,0,0Z"/>
</svg>