<svg id="Layer_1" data-name="Layer 1" xmlns="http://www.w3.org/2000/svg" viewBox="0 0 100 100"><defs><style>.cls-1{fill:#451022;}.cls-2{fill:#ee3a68;}</style></defs><g id="Surfaces"><g id="Publishing_Surface" data-name="Publishing Surface"><g id="Outline_no_shadow" data-name="Outline no shadow"><path class="cls-1" d="M17.71,1.25H82.29A17.7,17.7,0,0,1,100,19V81A17.7,17.7,0,0,1,82.29,98.75H17.71A17.7,17.7,0,0,1,0,81V19A17.7,17.7,0,0,1,17.71,1.25Z"/></g></g></g><g id="Outlined_Mnemonics_Logos" data-name="Outlined Mnemonics Logos"><g id="Id"><path class="cls-2" d="M36.33,26.75V69.5c0,.46-.21.67-.58.67H27.58c-.37,0-.54-.21-.54-.67V26.75c0-.38.21-.54.58-.54h8.13a.47.47,0,0,1,.54.41A.18.18,0,0,1,36.33,26.75Z"/><path class="cls-2" d="M60.33,70.83A20.58,20.58,0,0,1,51.38,69a14.53,14.53,0,0,1-6.3-5.67,18,18,0,0,1-2.29-9.5A17.15,17.15,0,0,1,45.08,45a17.35,17.35,0,0,1,6.63-6.46,21.36,21.36,0,0,1,10.54-2.42,6.3,6.3,0,0,1,.88.05c.37,0,.79,0,1.29.08V23.08c0-.29.12-.45.41-.45h8.46a.36.36,0,0,1,.42.29V62.67c0,.75,0,1.58.08,2.5s.13,1.71.17,2.41a.69.69,0,0,1-.42.67,31.75,31.75,0,0,1-6.79,2A36.85,36.85,0,0,1,60.33,70.83Zm4.09-8.33V44.17A9,9,0,0,0,63.29,44c-.46,0-.91-.08-1.37-.08A10.27,10.27,0,0,0,57.21,45a8.6,8.6,0,0,0-4.92,8.37,11.7,11.7,0,0,0,.71,4.3,8.2,8.2,0,0,0,1.87,2.95,7.2,7.2,0,0,0,2.84,1.67,10.74,10.74,0,0,0,3.46.54c.62,0,1.2,0,1.75-.08A3.53,3.53,0,0,0,64.42,62.5Z"/></g></g></svg>