<svg id="Layer_1" data-name="Layer 1" xmlns="http://www.w3.org/2000/svg" viewBox="0 0 100 100"><path d="M21.8,6.16v8H60.52v23.3H21.83V73.8H36.9v5.37H16.31V37.57H10.73V14.24h5.52V.71h73V79.18H84v-73ZM30.13,33c2.49,0,4.91.15,7.3,0a4.72,4.72,0,0,0,4-3,10.12,10.12,0,0,0,.12-7.9A4.3,4.3,0,0,0,38.43,19c-2.73-.39-5.51-.41-8.3-.59ZM19.49,27.77a49.43,49.43,0,0,0,5-.42,4.08,4.08,0,0,0,3.2-4.17c.07-2-1.06-4.09-2.78-4.31-2.74-.35-5.53-.33-8.28-.47V33h2.85ZM44.8,18.59V33h2.93V26.9h5.92V24.4H47.79V21H54.7V18.59Z"/><path d="M63.47,89l3.82-4.07L71,88.69,60.41,99.29,49.86,88.69l3.78-3.75L57.32,89l.4-.2V67.13h5.4V88.85Z"/><path d="M74.77,43.74v5.2H31v-5.2Z"/><path d="M30.91,60.37V55.14H74.73v5.23Z"/><path d="M33.11,30.64V21c2,.2,4.21-.71,5.37,1.43a6.93,6.93,0,0,1-.08,7C37.24,31.37,35,30.46,33.11,30.64Z"/><path d="M19.57,25V21.1a29.72,29.72,0,0,1,3.28,0,1.82,1.82,0,0,1,1.75,2A1.81,1.81,0,0,1,22.84,25C21.78,25.11,20.7,25,19.57,25Z"/></svg>