<svg id="Layer_1" data-name="Layer 1" xmlns="http://www.w3.org/2000/svg" viewBox="0 0 100 100"><defs><style>.cls-1{fill:#071f35;}.cls-2{fill:#56a1d8;}</style></defs><g id="Layer_2" data-name="Layer 2"><g id="Surfaces"><g id="Photo_Surface" data-name="Photo Surface"><g id="Outline_no_shadow" data-name="Outline no shadow"><path class="cls-1" d="M17.71,1.25H82.29A17.7,17.7,0,0,1,100,19V81A17.7,17.7,0,0,1,82.29,98.75H17.71A17.7,17.7,0,0,1,0,81V19A17.7,17.7,0,0,1,17.71,1.25Z"/></g></g></g><g id="Outlined_Mnemonics_Logos" data-name="Outlined Mnemonics Logos"><g id="Ps"><path class="cls-2" d="M22.5,69.63V26.75c0-.29.12-.46.42-.46.71,0,1.37,0,2.33,0s2,0,3.17-.08,2.33,0,3.62-.09,2.54,0,3.79,0a24.67,24.67,0,0,1,8.59,1.29A14.92,14.92,0,0,1,50,30.75a13.34,13.34,0,0,1,3,4.75,15.83,15.83,0,0,1,1,5.42,14.86,14.86,0,0,1-2.5,8.87,14.24,14.24,0,0,1-6.71,5.08,26.79,26.79,0,0,1-9.37,1.42c-1,0-1.67,0-2.09,0s-1,0-1.79,0V69.58a.53.53,0,0,1-.46.59H23C22.67,70.17,22.5,70,22.5,69.63Zm9.08-35.3v14c.59,0,1.13.09,1.63.09h2.21a15.57,15.57,0,0,0,4.79-.75,7.18,7.18,0,0,0,3.41-2.21,6.41,6.41,0,0,0,1.3-4.29,6.91,6.91,0,0,0-1-3.71A6,6,0,0,0,41,35.08a12.35,12.35,0,0,0-4.92-.83c-1.08,0-2,0-2.83,0a10,10,0,0,0-1.71,0Z"/><path class="cls-2" d="M80,45.79a14.86,14.86,0,0,0-4-1.41,21.52,21.52,0,0,0-4.67-.55,8.73,8.73,0,0,0-2.5.29,2.15,2.15,0,0,0-1.29.84,2.18,2.18,0,0,0-.33,1.12,1.87,1.87,0,0,0,.41,1.09A4.89,4.89,0,0,0,69,48.29c1,.5,2,1,3,1.38a30.2,30.2,0,0,1,6.42,3,9.66,9.66,0,0,1,3.29,3.46,9.08,9.08,0,0,1,1,4.29A9.74,9.74,0,0,1,81,66a10.42,10.42,0,0,1-4.67,3.71A19.17,19.17,0,0,1,68.83,71a29,29,0,0,1-5.66-.54,16.94,16.94,0,0,1-4.25-1.33.82.82,0,0,1-.46-.8V61.12a.45.45,0,0,1,.16-.37.34.34,0,0,1,.38,0,17.49,17.49,0,0,0,5.17,2,19.22,19.22,0,0,0,4.91.63,8,8,0,0,0,3.46-.58,1.94,1.94,0,0,0,1.13-1.75,2.22,2.22,0,0,0-1-1.67,17.86,17.86,0,0,0-4.09-2,25.48,25.48,0,0,1-5.91-3A10.68,10.68,0,0,1,59.5,51a8.91,8.91,0,0,1-1-4.25,9.77,9.77,0,0,1,1.42-5,10.29,10.29,0,0,1,4.37-3.84,16.18,16.18,0,0,1,7.38-1.45,35.72,35.72,0,0,1,5.16.37,14.85,14.85,0,0,1,3.59,1,.74.74,0,0,1,.41.37,1.82,1.82,0,0,1,.09.5v6.8a.52.52,0,0,1-.21.41A1.15,1.15,0,0,1,80,45.79Z"/></g></g></g></svg>