<svg id="Layer_1" data-name="Layer 1" xmlns="http://www.w3.org/2000/svg" viewBox="0 0 12 3"><defs><style>.cls-1{fill:#364159;}.cls-2{fill:#a8ca6c;}</style></defs><circle class="cls-1" cx="10.6" cy="0.78" r="0.17"/><path class="cls-1" d="M4.6.62h.74A.64.64,0,0,1,6,1.24a.59.59,0,0,1-.62.62H4.89v.53H4.6Zm.29,1c.2,0,.79,0,.79-.36S5.23.88,4.89.88Z"/><path class="cls-1" d="M8,1.29V2c0,.1,0,.15.14.16v.17A.27.27,0,0,1,8,2.4a.24.24,0,0,1-.23-.22.48.48,0,0,1-.44.24c-.4,0-.53-.39-.53-.65a.61.61,0,0,1,.67-.62C7.77,1.15,7.92,1.25,8,1.29Zm-.27.13a.92.92,0,0,0-.26,0,.37.37,0,0,0-.39.4c0,.22.11.4.32.4s.33-.17.33-.4Z"/><polygon class="cls-1" points="9.24 2.39 9.87 1.4 9.3 1.4 9.3 1.17 10.29 1.17 9.66 2.15 10.27 2.15 10.27 2.39 9.24 2.39"/><path class="cls-1" d="M9.12,2.38a.77.77,0,0,1-.29.05A.43.43,0,0,1,8.4,2c0-.32,0-.56,0-.56H8.14V1.17h.25V.88h.27v.29h.43v.22H8.66a4.51,4.51,0,0,0,0,.62c0,.21.19.24.43.18A.55.55,0,0,1,9.12,2.38Z"/><path class="cls-1" d="M6.42.63V2c0,.3.15.25.21.25s.07.12,0,.18a.26.26,0,0,1-.17.05c-.19,0-.38-.13-.38-.55s0-1.25,0-1.25Z"/><rect class="cls-1" x="10.48" y="1.19" width="0.25" height="1.21"/><path class="cls-2" d="M2.37.17l-1,1a.53.53,0,0,0,0,.74l1,1a.53.53,0,0,0,.74,0l.31-.31-.35-.35-.34.34-1-1,1-1,.68.67-.68.68.34.33.64-.64a.51.51,0,0,0,0-.74L3.11.17A.53.53,0,0,0,2.37.17Z"/></svg>