<svg id="Layer_1" data-name="Layer 1" xmlns="http://www.w3.org/2000/svg" viewBox="0 0 2 2"><defs><style>.cls-1{fill:#3673a5;}.cls-2{fill:#f8cf46;}</style></defs><path class="cls-1" d="M.79,0A.29.29,0,0,0,.5.29V.45H.93S1,.51,1,.55H.29A.29.29,0,0,0,0,.84v.37a.29.29,0,0,0,.29.29H.4V1.23A.28.28,0,0,1,.69,1h.52A.29.29,0,0,0,1.5.66V.29A.29.29,0,0,0,1.21,0ZM.71.16S.79.17.79.23A.08.08,0,0,1,.71.32.08.08,0,0,1,.64.23.06.06,0,0,1,.71.16Z"/><path class="cls-2" d="M1.6.5V.77a.28.28,0,0,1-.29.28H.79a.29.29,0,0,0-.29.29v.37A.29.29,0,0,0,.79,2h.42a.29.29,0,0,0,.29-.29h0V1.55H1.07S1,1.49,1,1.45h.71A.29.29,0,0,0,2,1.16H2V.79A.29.29,0,0,0,1.71.5ZM.63,1Zm.66.73a.08.08,0,0,1,.07.09.07.07,0,0,1-.07.07s-.08,0-.08-.07A.08.08,0,0,1,1.29,1.68Z"/></svg>