<svg id="Layer_1" data-name="Layer 1" xmlns="http://www.w3.org/2000/svg" viewBox="0 0 100 100"><defs><style>.cls-1{fill:#62a946;}.cls-2{fill:#136e3c;}.cls-3{fill:#d2d3d4;}.cls-4{fill:#a97d52;}.cls-5{fill:#7c5533;}</style></defs><path class="cls-1" d="M1.47,50.14A44.35,44.35,0,0,1,3.66,33.88C10.3,13.08,30.35-1,51.68.06,74.37,1.2,92.78,16.61,97.5,38.42a49,49,0,0,1,1,13.07c-.22,1.65-.41,3.3-.67,4.95a46.64,46.64,0,0,1-16.54,29.3A47.31,47.31,0,0,1,47.77,97.13a46.05,46.05,0,0,1-17.92-4.26A48.11,48.11,0,0,1,3.64,63.25,44.13,44.13,0,0,1,1.47,50.14ZM6,48.53C6,72.78,25.62,92.67,49.61,92.68,74,92.7,94,73.12,94,49.14,94,24.39,74.4,4.55,50,4.58A44.12,44.12,0,0,0,6,48.53Z"/><path class="cls-2" d="M1.47,50.14A44.13,44.13,0,0,0,3.64,63.25,48.11,48.11,0,0,0,29.85,92.87a46.05,46.05,0,0,0,17.92,4.26A47.31,47.31,0,0,0,81.32,85.74a46.64,46.64,0,0,0,16.54-29.3c.26-1.65.45-3.3.67-4.95a47.08,47.08,0,0,1-8.3,27.07C79.29,94.76,59.37,103,40.58,99A48.52,48.52,0,0,1,2.24,60.39,41,41,0,0,1,1.47,50.14Z"/><path class="cls-3" d="M38.74,71.81a37.63,37.63,0,0,1-5.06,3.66L19.13,53.59a30.66,30.66,0,0,1,8-4.49,104.81,104.81,0,0,1,25.56-6.52c.42-.06.84-.18,1.25-.26a20.62,20.62,0,0,0,2.88,3.89l.26.27,0,0a2.4,2.4,0,0,1-.11,1.63,29.15,29.15,0,0,1-3.29,7.23A67.15,67.15,0,0,1,42.79,68q-2.09,1.74-4.16,3.49C38.46,71.6,38.54,71.75,38.74,71.81Z"/><path class="cls-4" d="M56.79,46.21a20.62,20.62,0,0,1-2.88-3.89L69.63,29.79A20.15,20.15,0,0,1,76.17,26c1.82-.56,3.63-.76,5.16.76l.27.34v0c0,.23,0,.46.28.54h0a15.44,15.44,0,0,0,0,1.8,4.78,4.78,0,0,1-1.81,4.2,18.93,18.93,0,0,1-2.88,2.15c-6.17,3.9-12.72,7.11-19.1,10.65-.38.21-.68.32-1,.07l0,0ZM77.47,29.65a1,1,0,0,0-1.08-1,1,1,0,1,0,0,2A1,1,0,0,0,77.47,29.65Zm-7.47,5a1,1,0,0,0-1.18-.92.93.93,0,0,0-1,1,1,1,0,0,0,1.1,1A1,1,0,0,0,70,34.63ZM62.57,39.7a1.07,1.07,0,0,0-1.12-1c-.62,0-1.07.32-1.06,1a1,1,0,0,0,1.08,1A1.05,1.05,0,0,0,62.57,39.7Z"/><path class="cls-5" d="M57,46.46c.37.25.67.14,1-.07,6.38-3.54,12.93-6.75,19.1-10.65a18.93,18.93,0,0,0,2.88-2.15,4.78,4.78,0,0,0,1.81-4.2,15.44,15.44,0,0,1,0-1.8,4.74,4.74,0,0,1-.48,6.29,20.62,20.62,0,0,1-5.17,3.82c-5.63,3.13-11.3,6.22-16.95,9.32l-1.15.66c-2.51,8.77-8.44,14.91-15,20.56L42.79,68A67.15,67.15,0,0,0,53.63,55.32a29.15,29.15,0,0,0,3.29-7.23A2.4,2.4,0,0,0,57,46.46Z"/><path class="cls-4" d="M42.79,68l.27.27a42.2,42.2,0,0,1-4.32,3.57c-.2-.06-.28-.21-.11-.35Q40.7,69.71,42.79,68Z"/><path class="cls-5" d="M81.87,27.6c-.28-.08-.27-.31-.28-.54C81.8,27.18,82,27.33,81.87,27.6Z"/><path class="cls-5" d="M81.6,27.1l-.27-.34Z"/><path class="cls-5" d="M56.79,46.21l.26.27Z"/></svg>