<svg id="Layer_1" data-name="Layer 1" xmlns="http://www.w3.org/2000/svg" viewBox="0 0 137.85 100"><defs><style>.cls-1{fill:#1f658d;}.cls-2{fill:#e3912a;}</style></defs><path class="cls-1" d="M26.47,63.23c-2,4.44-4,8.86-5.94,13.31-.93,2.14-2.24,3.43-4.81,3.37s-3.58-1.42-4.45-3.4A127.46,127.46,0,0,0,4.59,63c0,4.57,0,9.13,0,13.69,0,1.52.5,3.07-2.2,3.14C-.54,79.88.05,78.14,0,76.54,0,72,.12,67.39,0,62.82,0,60.44.32,58.64,3.09,58.16S8,58.29,9.14,61c1.92,4.36,3.79,8.75,5.69,13.13.24.57.55,1.11,1,2.05,2.35-5.22,4.56-10.09,6.73-15,1.24-2.82,3.38-3.55,6.24-2.95A3.39,3.39,0,0,1,31.87,62c0,5.22-.07,10.43,0,15.64,0,1.72-.57,2.16-2.21,2.13s-2.54-.21-2.48-2.21c.13-4.74,0-9.48,0-14.22Z"/><path class="cls-2" d="M109.17,82.64c-3.39.57-5.82.42-7.57-2-.7-1-1.78-1-2.88-.94-2.56,0-5.11.1-7.66,0-4.44-.16-6.41-2.2-6.44-6.52,0-2.77,0-5.54,0-8.3,0-4,1.7-6,5.64-6.22a103.22,103.22,0,0,1,11.8,0c3.89.23,5.47,2.13,5.49,5.94,0,3.09,0,6.17,0,9.26,0,.74.21,1.8-.18,2.18C104.46,78.85,106.42,80.69,109.17,82.64ZM93.3,73.53c3.54-.47,6-.53,7.85,1.84.82,1,1.94.66,1.94-.66,0-4.1,1.62-8.8-.73-12.1-1.83-2.56-6.2-.8-9.43-1a4.52,4.52,0,0,0-.63.08c-1.74.17-2.7,1-2.67,2.88.06,3,0,6,0,8.93,0,2.15,1.12,3.08,3.14,3.13,1.21,0,2.42,0,3.63,0l.23-.68Z"/><path class="cls-1" d="M137.37,53.86c-2.41,1.52-5.1.73-7.45,2.15.94,1.71,2.83,2.13,4.15,3.23a12.73,12.73,0,0,1,3.78,4.23c-3.78-2.26-7.57-3.34-10.1-6.52-1.08-1.37-1.19-2.25.8-2.88s3.9-.53,6.47-.91c-3.06-2.44-5.53-4.58-8.77-5.34a6.77,6.77,0,0,1-5-4.44,89.16,89.16,0,0,0-3.76-8.4c-4.38-8.15-10.1-14.71-20-15.92-2.08-.25-3.36-2.13-5.32-2.71-1-.29-2.11-1.09-3-.2s-.13,2.12.6,2.81c4,3.82,3.73,9.9,7.39,13.94.77.85.11,2.21-.32,3.34a14.16,14.16,0,0,0-.14,9.67c.34,1,.55,2.32,2.22,2.61.47-2.46.45-5.1,2.68-7.16,1.8,3.36,3.16,6.87,5.21,10-2.44-1-3.53-3.22-4.66-5.36-.87.34-.81,1.05-.88,1.6-.16,1.3-.26,2.74-1.78,3-1.78.36-2.7-1-3.4-2.35-2-3.66-2-7.52-1-11.44a6.17,6.17,0,0,0-.67-5.27C92,27.41,91.07,22.3,87.67,18.46a2.59,2.59,0,0,1,0-3.28A3.15,3.15,0,0,1,91,13.93a1.64,1.64,0,0,1,.32.05C104,18.17,116.15,23.05,120.9,37.3c.4,1.2,1.12,2.29,1.56,3.48a9.82,9.82,0,0,0,6,6.07A23,23,0,0,1,137.37,53.86Z"/><path class="cls-1" d="M57.72,73.82v5.41c0,4.35-1.3,6.27-5.52,6.63-5,.43-10,.17-15,.26-1.23,0-1.31-.64-1.35-1.6,0-1.35.68-1.55,1.8-1.53,3.61,0,7.22,0,10.83,0a16.92,16.92,0,0,0,2.85-.18,2,2,0,0,0,1.71-2.3c-.15-1.3-1.25-.9-2-.92-2.76,0-5.53.1-8.28-.07-5.61-.35-7-1.88-7-7.44,0-1.49,0-3,0-4.46s-.22-2.77,2.16-2.78,2.48,1.2,2.39,2.93c-.07,1.49,0,3,0,4.46,0,4.44.06,4.58,4.36,4.49,2.71,0,6.19,1.22,7.93-.61,1.59-1.66.27-5.07.49-7.7.13-1.53-1-3.79,2.28-3.58,1.74.11,2.46.44,2.32,2.3C57.6,69.35,57.72,71.59,57.72,73.82Z"/><path class="cls-2" d="M73.63,58.53h6.7c.9,0,1.63,0,1.65,1.3s-.6,1.6-1.74,1.6c-3.61,0-7.23,0-10.84,0-1.86,0-3.56.18-3.51,2.92s1.3,3.22,3.59,3.23c2.85,0,5.74-.41,8.55.54,2.17.74,3.7,1.89,3.78,4.48s-.22,5.26-3.2,6.23c-5.38,1.76-11,.56-16.46.8-1.12,0-.8-1-.86-1.7-.11-1.18.6-1.39,1.59-1.38,3.4,0,6.81,0,10.21,0,2.15,0,4,0,4-3.11s-2.06-3-4.1-3.1c-2.23-.11-4.48,0-6.68-.29-3.89-.54-5.17-2.31-5-6.34.17-3.26,2-5,5.58-5.16,2.23-.1,4.47,0,6.7,0Z"/><path class="cls-2" d="M110.63,67.47c0-2.13.09-4.26,0-6.38-.1-1.79.21-2.63,2.36-2.65,2.31,0,2.25,1.13,2.23,2.75-.06,4,.08,8.09,0,12.13-.08,2.39,1,3.26,3.2,3.24,3.51,0,7,0,10.53,0,1.11,0,2.12-.07,2.17,1.55s-1,1.59-2.08,1.58c-3.51,0-7,.06-10.53,0-6.16-.13-7.8-1.87-7.8-8.06Z"/><path class="cls-1" d="M99.47,25.63l-1.64-2.76C100.41,23.41,100.44,23.48,99.47,25.63Z"/></svg>