<svg id="Layer_1" data-name="Layer 1" xmlns="http://www.w3.org/2000/svg" viewBox="0 0 100 100"><defs><style>.cls-1{fill:#6951a2;}.cls-2{fill:#f7f1f8;}</style></defs><path class="cls-1" d="M0,52.58V47.5c.15,0,.26-.06.4-.08a8.84,8.84,0,0,0,4.26-1.77,10.65,10.65,0,0,0,1.78-1.77A11,11,0,0,0,7.6,42.06,22.62,22.62,0,0,0,9,38.82a41,41,0,0,0,1.9-10.29A57.11,57.11,0,0,0,11,20.79a10.37,10.37,0,0,1,.14-2.15A10,10,0,0,1,19,10.33c.09,0,.24,0,.17-.16h.33c.11.17.22,0,.33,0H80.17c.11,0,.22.18.33,0h.33l0,0,0,0c.07.11.19.1.3.12a9.47,9.47,0,0,1,5.63,3.47A10.47,10.47,0,0,1,89,21.11a60.53,60.53,0,0,0,.59,11.65,32,32,0,0,0,1.67,6.76,13.37,13.37,0,0,0,4.11,6.12A8.1,8.1,0,0,0,100,47.42v5.16h-.08a8.61,8.61,0,0,0-6.08,3.25A16.06,16.06,0,0,0,91.07,61a40.08,40.08,0,0,0-2,10.63,61,61,0,0,0-.1,7.65,9.69,9.69,0,0,1-.15,2.15A10,10,0,0,1,81,89.67c-.09,0-.22,0-.16.16H80.5c-.11-.17-.22,0-.33,0H19.83s-.11-.13-.16,0h-.5s0,0,0,0,0,0,0,0a.64.64,0,0,0-.19-.08,10.08,10.08,0,0,1-8-10c0-.78.06-1.55.07-2.33,0-2.13-.07-4.26-.24-6.39-.1-1.26-.24-2.52-.42-3.77a31.8,31.8,0,0,0-1.79-7.06,13.11,13.11,0,0,0-4-5.81A8.18,8.18,0,0,0,0,52.58Zm57.12-3.8a1.72,1.72,0,0,1,.44-.19,9.31,9.31,0,0,0,5.63-3.88,9,9,0,0,0,1.66-6.23,10.72,10.72,0,0,0-.71-3.18A9.82,9.82,0,0,0,59,30.09a16.6,16.6,0,0,0-7.16-1.38H35.1c-.33,0-.45.06-.45.43q0,20.87,0,41.73c0,.35.11.41.42.41q8.48,0,17,0a21.23,21.23,0,0,0,7-1,11.77,11.77,0,0,0,5.87-4,11.3,11.3,0,0,0,2.12-8,9.77,9.77,0,0,0-5.9-8.41A11.46,11.46,0,0,0,57.12,48.78Z"/><path class="cls-2" d="M57.12,48.78a11.46,11.46,0,0,1,4,1A9.77,9.77,0,0,1,67,58.23a11.3,11.3,0,0,1-2.12,8,11.77,11.77,0,0,1-5.87,4,21.23,21.23,0,0,1-7,1q-8.47,0-17,0c-.31,0-.42-.06-.42-.41q0-20.86,0-41.73c0-.37.12-.43.45-.43H51.8A16.6,16.6,0,0,1,59,30.09a9.82,9.82,0,0,1,5.18,5.21,10.72,10.72,0,0,1,.71,3.18,9,9,0,0,1-1.66,6.23,9.31,9.31,0,0,1-5.63,3.88A1.72,1.72,0,0,0,57.12,48.78Zm-15.54,10c0,2.14,0,4.28,0,6.42,0,.36.07.49.46.49,2.91,0,5.81,0,8.71,0a16.37,16.37,0,0,0,3.35-.29,8.13,8.13,0,0,0,3.73-1.62c2-1.69,2.41-3.93,2-6.37a5.75,5.75,0,0,0-4.1-4.67A15.74,15.74,0,0,0,50.4,52c-2.8,0-5.61,0-8.41,0-.34,0-.42.1-.41.42C41.59,54.51,41.58,56.66,41.58,58.81Zm0-18.32c0,1.94,0,3.88,0,5.83,0,.33.06.44.42.44q3.2,0,6.37,0A19.58,19.58,0,0,0,52,46.5a8,8,0,0,0,4.22-1.91A5.71,5.71,0,0,0,58,39.8a5.21,5.21,0,0,0-3.2-4.72,10.18,10.18,0,0,0-4.25-.81c-2.86,0-5.72,0-8.58,0-.32,0-.38.1-.38.41C41.59,36.6,41.58,38.54,41.58,40.49Z"/><path class="cls-1" d="M41.58,58.81c0-2.15,0-4.3,0-6.45,0-.32.07-.42.41-.42,2.8,0,5.61,0,8.41,0a15.74,15.74,0,0,1,5.36.8,5.75,5.75,0,0,1,4.1,4.67c.38,2.44,0,4.68-2,6.37a8.13,8.13,0,0,1-3.73,1.62,16.37,16.37,0,0,1-3.35.29c-2.9,0-5.8,0-8.71,0-.39,0-.47-.13-.46-.49C41.59,63.09,41.58,61,41.58,58.81Z"/><path class="cls-1" d="M41.58,40.49c0-2,0-3.89,0-5.83,0-.31.06-.41.38-.41,2.86,0,5.72,0,8.58,0a10.18,10.18,0,0,1,4.25.81A5.21,5.21,0,0,1,58,39.8a5.71,5.71,0,0,1-1.73,4.79A8,8,0,0,1,52,46.5a19.58,19.58,0,0,1-3.67.25q-3.18,0-6.37,0c-.36,0-.43-.11-.42-.44C41.59,44.37,41.58,42.43,41.58,40.49Z"/></svg>