<svg id="Layer_1" data-name="Layer 1" xmlns="http://www.w3.org/2000/svg" viewBox="0 0 100 100"><defs><style>.cls-1{fill:#8bb940;}</style></defs><path class="cls-1" d="M100,50.28c0,15.49,0,31,0,46.46,0,2.32-.4,3.27-3.06,3.27q-47-.15-94,0C.75,100,0,99.48,0,97.15Q.11,50,0,2.88C0,.58.78,0,3,0Q50.11.08,97.25,0C99.38,0,100,.6,100,2.74,99.92,18.59,100,34.43,100,50.28ZM32.51,82.84c2.79.94,4.3-.67,5.08-3.68a41.26,41.26,0,0,1,1.89-4.78q5-12.43,10-24.86c.26-.63.29-1.6,1.22-1.57s.83,1,1.1,1.65.35,1,.53,1.54c3,8.5,5.92,17,9.13,25.48,1.45,3.8,4,6.62,8.64,6.63s5.68-1.19,4.68-5.91c-.15-.72-.33-1.14-1.18-1.11C70,76.34,68.93,73.69,68,71Q60.05,48.52,52.15,26.05c-2.72-7.71-8.5-11-16.53-9.5-3.92.74-3.87.74-3.85,5,0,1.84.36,2.47,2.47,2,5.39-1.1,7.34-.16,9.51,3.85,1.09,2,1.56,4.24,2.44,6.31a4.42,4.42,0,0,1,0,3.84C40.4,51.23,34.71,64.9,29,78.55,27.17,82.87,27.15,82.86,32.51,82.84Z"/></svg>