<svg id="Layer_1" data-name="Layer 1" xmlns="http://www.w3.org/2000/svg" viewBox="0 0 100 100"><defs><style>.cls-1{fill:#71c1ec;}.cls-2{fill:#235997;}.cls-3{fill:#245997;}.cls-4{fill:#61b5e5;}</style></defs><path class="cls-1" d="M53,0a4.68,4.68,0,0,0-3.27,1.35l0,0L19,19.05,49.57,49.61v0L86.29,86.36l7-12.62L68.05,13.13,56.27,1.34A4.7,4.7,0,0,0,53,0Z"/><path class="cls-2" d="M19.08,19,1.39,49.59l0,0A4.7,4.7,0,0,0,0,52.91a4.64,4.64,0,0,0,1.38,3.3L16.05,70.89,73.42,93.46l13-7.21L86,85.9l-.09,0-36-36h0L19.08,19Z"/><path class="cls-3" d="M19,19l31.26,31.3h.05l36,36L100,83.69l0-40.52L85.54,29c-3.17-3.1-8-5.1-12.93-5.76l0-.16L19,19Z"/><path class="cls-4" d="M19.05,19,50.32,50.3v.05l36,36L83.7,100H43.18L29,85.57c-3.11-3.17-5.1-8-5.76-12.93H23.1L19.05,19Z"/></svg>