<svg id="Layer_1" data-name="Layer 1" xmlns="http://www.w3.org/2000/svg" viewBox="0 0 2 2"><defs><style>.cls-1{fill:#5acbf5;}.cls-2{fill:#085a9d;}.cls-3{fill:#47b7e9;}</style></defs><path class="cls-1" d="M.51,1.3.2,1s0,0,0,0C.54.65.85.35,1.15,0a.11.11,0,0,1,.09,0h.55S.69,1.14.51,1.3Z"/><path class="cls-1" d="M1,1.17,1.17.94l.05,0h.57a.07.07,0,0,1,0,.06l-.43.44a.07.07,0,0,0,0,.05h0s0,0,0,0L1,1.19S1,1.16,1,1.17Z"/><path class="cls-2" d="M1.26,1.47h0L1.8,2V2H1.24a.11.11,0,0,1-.08,0L1,1.77l.09-.09A2,2,0,0,0,1.26,1.47Z"/><path class="cls-3" d="M1.26,1.47a2,2,0,0,1-.2.21L1,1.77c-.11-.09-.21-.2-.31-.3L1,1.17s0,0,0,0l.25.24S1.26,1.46,1.26,1.47Z"/></svg>