<svg id="Layer_1" data-name="Layer 1" xmlns="http://www.w3.org/2000/svg" viewBox="0 0 100 100"><defs><style>.cls-1{fill:#301111;}.cls-2{fill:#f89a1c;}</style></defs><g id="Layer_2" data-name="Layer 2"><g id="Surfaces"><g id="Drawing_Surface" data-name="Drawing Surface"><g id="Outline_no_shadow" data-name="Outline no shadow"><path class="cls-1" d="M17.71,1.25H82.29A17.7,17.7,0,0,1,100,19V81A17.7,17.7,0,0,1,82.29,98.75H17.71A17.7,17.7,0,0,1,0,81V19A17.7,17.7,0,0,1,17.71,1.25Z"/></g></g></g><g id="Outlined_Mnemonics_Logos" data-name="Outlined Mnemonics Logos"><g id="Ai"><path class="cls-2" d="M48.46,59.75H33l-3.17,9.79a.71.71,0,0,1-.79.58H21.17c-.46,0-.59-.25-.46-.75L34.13,30.75c.12-.42.25-.88.41-1.38a14.2,14.2,0,0,0,.25-2.7.42.42,0,0,1,.34-.46H45.92c.33,0,.5.12.54.33L61.67,69.46c.12.46,0,.66-.42.66H52.54a.61.61,0,0,1-.66-.45ZM35.38,51.29H46c-.25-.87-.58-1.91-1-3s-.75-2.33-1.12-3.58-.8-2.54-1.21-3.83-.79-2.5-1.13-3.71-.62-2.25-.91-3.25h-.09a50.62,50.62,0,0,1-1.41,5.37c-.63,2-1.25,4.09-1.92,6.17S36,49.54,35.38,51.29Z"/><path class="cls-2" d="M70.75,33.33A5.2,5.2,0,0,1,67,31.88,5.39,5.39,0,0,1,65.63,28a4.89,4.89,0,0,1,1.5-3.71,5.35,5.35,0,0,1,3.7-1.45,5,5,0,0,1,3.8,1.45A5.31,5.31,0,0,1,76,28a5.3,5.3,0,0,1-1.46,3.84A4.86,4.86,0,0,1,70.75,33.33ZM66.08,69.5V37.42c0-.42.17-.59.55-.59h8.25c.37,0,.54.21.54.59V69.5c0,.46-.17.67-.54.67H66.71A.59.59,0,0,1,66.08,69.5Z"/></g></g></g></svg>