<svg id="Layer_1" data-name="Layer 1" xmlns="http://www.w3.org/2000/svg" viewBox="0 0 2 2">
    <defs><style>.cls-1{fill:#414042;}</style></defs>
    <path class="cls-1" d="M1.81.25H.19A.18.18,0,0,0,0,.44V1.56a.18.18,0,0,0,.19.19H1.81A.18.18,0,0,0,2,1.56V.44A.18.18,0,0,0,1.81.25ZM.19.38H1.81s.07,0,.07.06V.6l-.59.47c-.07.06-.2.18-.29.18S.78,1.13.71,1.07L.12.6V.44S.15.38.19.38ZM1.81,1.63H.19a.07.07,0,0,1-.07-.07V.76l.52.41c.08.06.22.21.36.21s.28-.14.36-.21L1.88.76v.8A.07.07,0,0,1,1.81,1.63Z"/>
</svg>