<svg id="Layer_1" data-name="Layer 1" xmlns="http://www.w3.org/2000/svg" viewBox="0 0 100 100"><defs><style>.cls-1{fill:#3e83c4;}</style></defs><path class="cls-1" d="M50,75.33C22.37,75.33,0,64,0,50S22.37,24.67,50,24.67,100,36,100,50,77.62,75.33,50,75.33M28.37,42.21c2.25,0,3.8.41,4.55,1.29s.91,2.33.54,4.29A6.91,6.91,0,0,1,31,52.33c-1.16.92-3,1.38-5.37,1.38H22l2.21-11.5h4.12M13.79,65.33h6L21.21,58h5.12a18.68,18.68,0,0,0,5.55-.71,11.1,11.1,0,0,0,4-2.41,11.67,11.67,0,0,0,2.42-3.05,10.56,10.56,0,0,0,1.29-3.66c.67-3.25.21-5.79-1.37-7.58s-4.13-2.71-7.59-2.71H19.13L13.79,65.33M44,30.62,38.67,58h5.91l3.09-15.71h4.75c1.5,0,2.5.25,2.95.75s.55,1.42.3,2.75L53.29,58h6l2.46-12.79c.54-2.58.13-4.46-1.12-5.67s-3.54-1.66-6.88-1.66H48.5l1.5-7.3H44M75,42.21c2.29,0,3.79.41,4.54,1.29s.92,2.33.54,4.29a7,7,0,0,1-2.37,4.54,8.85,8.85,0,0,1-5.42,1.38H68.75l2.08-11.5H75M60.42,65.33h6L67.83,58h5.09a19,19,0,0,0,5.62-.71,12.13,12.13,0,0,0,6.38-5.46,11.75,11.75,0,0,0,1.33-3.66c.63-3.25.17-5.79-1.42-7.58s-4.12-2.71-7.58-2.71H65.79Z"/></svg>