<svg id="Layer_1" data-name="Layer 1" xmlns="http://www.w3.org/2000/svg" viewBox="0 0 100 100"><defs><style>.cls-1{fill:#1d1c57;}.cls-2{fill:#9696ca;}</style></defs><g id="Layer_2" data-name="Layer 2"><g id="Surfaces"><g id="Video_Audio_Surface" data-name="Video Audio Surface"><g id="Outline_no_shadow" data-name="Outline no shadow"><path class="cls-1" d="M17.71,1.25H82.29A17.7,17.7,0,0,1,100,19V81A17.7,17.7,0,0,1,82.29,98.75H17.71A17.7,17.7,0,0,1,0,81V19A17.7,17.7,0,0,1,17.71,1.25Z"/></g></g></g><g id="Outlined_Mnemonics_Logos" data-name="Outlined Mnemonics Logos"><g id="Pr"><path class="cls-2" d="M23.75,69.63V26.75c0-.29.12-.46.42-.46.71,0,1.37,0,2.33,0s2,0,3.17-.08,2.33,0,3.62-.09,2.54,0,3.79,0a24.67,24.67,0,0,1,8.59,1.29,14.92,14.92,0,0,1,5.58,3.42,13.34,13.34,0,0,1,3,4.75,15.83,15.83,0,0,1,1,5.42,14.86,14.86,0,0,1-2.5,8.87A14.24,14.24,0,0,1,46,54.87a26.79,26.79,0,0,1-9.37,1.42c-1,0-1.67,0-2.09,0s-1,0-1.79,0V69.58a.53.53,0,0,1-.46.59H24.25C23.92,70.17,23.75,70,23.75,69.63Zm9.08-35.3v14c.59,0,1.13.09,1.63.09h2.21a15.57,15.57,0,0,0,4.79-.75,7.18,7.18,0,0,0,3.41-2.21,6.41,6.41,0,0,0,1.3-4.29,6.91,6.91,0,0,0-1-3.71,6,6,0,0,0-2.92-2.38,12.35,12.35,0,0,0-4.92-.83c-1.08,0-2,0-2.83,0a10,10,0,0,0-1.71,0Z"/><path class="cls-2" d="M61.08,36.75h7.3a.93.93,0,0,1,.87.67,3.86,3.86,0,0,1,.25,1c.08.41.17.87.21,1.29s.08,1,.08,1.5a15.34,15.34,0,0,1,4.46-3.58A12.87,12.87,0,0,1,80.58,36a.52.52,0,0,1,.59.46v8.29c0,.33-.21.46-.67.46a17.89,17.89,0,0,0-4.5.42,17,17,0,0,0-3.5,1.12,6.76,6.76,0,0,0-2.13,1.54V69.58c0,.42-.16.59-.54.59H61.62a.57.57,0,0,1-.66-.5V46.42c0-1,0-2.05,0-3.13s-.05-2.17-.09-3.25-.08-1.87-.16-2.83a.38.38,0,0,1,.29-.46s.08,0,.12,0Z"/></g></g></g></svg>