<svg xmlns="http://www.w3.org/2000/svg" viewBox="0 0 10 10">
    <path d="M8.93,0H1.07A1.07,1.07,0,0,0,0,1.07V8.93A1.07,1.07,0,0,0,1.07,10H8.93A1.07,1.07,0,0,0,10,8.93V1.07A1.07,1.07,0,0,0,8.93,0ZM7.84,3.54v.19A4.13,4.13,0,0,1,3.68,7.9a4.12,4.12,0,0,1-2.25-.66,2.06,2.06,0,0,0,.35,0A2.94,2.94,0,0,0,3.6,6.64a1.49,1.49,0,0,1-1.37-1,1.64,1.64,0,0,0,.66,0A1.45,1.45,0,0,1,1.72,4.16v0a1.44,1.44,0,0,0,.66.18A1.46,1.46,0,0,1,1.73,3.1a1.38,1.38,0,0,1,.2-.73,4.2,4.2,0,0,0,3,1.53A1.47,1.47,0,0,1,6.37,2.1a1.45,1.45,0,0,1,1.07.46,2.75,2.75,0,0,0,.93-.35,1.46,1.46,0,0,1-.64.8,3,3,0,0,0,.84-.22A3.06,3.06,0,0,1,7.84,3.54Z"/>
</svg>