<svg id="Layer_1" data-name="Layer 1" xmlns="http://www.w3.org/2000/svg" viewBox="0 0 100 100"><defs><style>.cls-1{fill:#01779e;}</style></defs><path class="cls-1" d="M55.27,100H44.73c.08-.48-.32-.33-.52-.37-.9-.15-1.8-.24-2.7-.39A48.38,48.38,0,0,1,16.4,87a49,49,0,0,1-16-31.19c0-.21.11-.6-.37-.52V44.73c.48.08.33-.32.37-.52.15-.9.24-1.8.39-2.7A48.46,48.46,0,0,1,13,16.4,49,49,0,0,1,44.21.37c.21,0,.6.11.52-.37H55.27c-.08.48.32.33.52.37.9.15,1.8.24,2.7.4A48.37,48.37,0,0,1,83.6,13a49,49,0,0,1,16,31.19c0,.2-.11.6.37.52V55.27c-.48-.08-.33.32-.37.52-.15.9-.24,1.8-.39,2.7A48.38,48.38,0,0,1,87,83.6a49,49,0,0,1-31.19,16C55.59,99.66,55.19,99.52,55.27,100ZM96.48,50A46.48,46.48,0,1,0,50,96.48,46.53,46.53,0,0,0,96.48,50Z"/><path class="cls-1" d="M39.51,73.28c-.93-2.63-1.81-5.1-2.68-7.57l-12-33.78c-.38-1.07-.37-1.07.79-1.07s2.47,0,3.71,0c.5,0,.7-.15.68-.67a21.52,21.52,0,0,1,0-2.54c.06-.77-.27-.91-1-.9-4.2,0-8.4,0-12.6,0H15.4c13.14-20.76,44-25.35,63-7.29a9.43,9.43,0,0,0-4.32,1.08A8,8,0,0,0,70,27.43a3.76,3.76,0,0,0,.78,2.27c1.07,1.55,2.16,3.09,3.22,4.65A22.68,22.68,0,0,1,77.27,52.7C76.12,57.88,74,62.76,72.36,67.78c-.6,1.78-1.24,3.55-1.94,5.54-.46-1.27-.86-2.34-1.24-3.41l-13.44-38c-.36-1-.36-1,.72-1,1.4,0,2.8,0,4.2,0,.61,0,.8-.19.77-.77,0-.85,0-1.7,0-2.54,0-.67-.25-.8-.86-.8-3.81,0-7.62,0-11.42,0-4.17,0-8.34,0-12.5,0-.82,0-1.2.15-1.11,1.06s-.3,2.26.19,2.83,1.89.16,2.89.21,2-.25,2.67.16.73,1.6,1,2.45q2.67,7.47,5.31,15a2.34,2.34,0,0,1,0,1.69Q43.74,61.3,39.83,72.53C39.76,72.73,39.66,72.92,39.51,73.28Z"/><path class="cls-1" d="M50.13,55.53l3.68,10.4C56.54,73.63,59.24,81.34,62,89c.29.79.15,1-.63,1.21A42.12,42.12,0,0,1,37.92,90c-.5-.15-.82-.24-.55-.94q6.27-16.5,12.5-33A5.54,5.54,0,0,1,50.13,55.53Z"/><path class="cls-1" d="M86.54,30c10.78,18.12,4.87,45.47-16.76,56.75.42-1.2.79-2.29,1.18-3.38q6.9-19.29,13.82-38.58a31.38,31.38,0,0,0,1.76-14.24A5,5,0,0,1,86.54,30Z"/><path class="cls-1" d="M11.54,33.74,30.25,86.63C25.43,85.6,16,75.79,12.18,67.8A41.56,41.56,0,0,1,11.54,33.74Z"/></svg>